HIERARCHY
ROOT Hips
{
  OFFSET 3.13124 94.3669 -3.18751
  CHANNELS  6 Xposition Yposition Zposition Zrotation Xrotation Yrotation
  JOINT LeftUpLeg
  {
    OFFSET 8.64259 1.95398 -2.38835
    CHANNELS 3 Zrotation Xrotation Yrotation
    JOINT LeftLeg
    {
      OFFSET 43.7702 0 0
      CHANNELS 3 Zrotation Xrotation Yrotation
      JOINT LeftFoot
      {
        OFFSET 40.6238 0 0
        CHANNELS 3 Zrotation Xrotation Yrotation
        JOINT LeftToeBase
        {
          OFFSET 12.7242 0 0
          CHANNELS 3 Zrotation Xrotation Yrotation
          End Site
          {
            OFFSET 0 0 0
          }
        }
      }
    }
  }
  JOINT RightUpLeg
  {
    OFFSET -8.2249 1.95398 -2.59336
    CHANNELS 3 Zrotation Xrotation Yrotation
    JOINT RightLeg
    {
      OFFSET 43.5653 0 0
      CHANNELS 3 Zrotation Xrotation Yrotation
      JOINT RightFoot
      {
        OFFSET 40.6238 0 0
        CHANNELS 3 Zrotation Xrotation Yrotation
        JOINT RightToeBase
        {
          OFFSET 12.7242 0 0
          CHANNELS 3 Zrotation Xrotation Yrotation
          End Site
          {
            OFFSET 0 0 0
          }
        }
      }
    }
  }
  JOINT Spine
  {
    OFFSET 0.165834 0.87714 6.61349
    CHANNELS 3 Zrotation Xrotation Yrotation
    JOINT Spine1
    {
      OFFSET 7.38962 1.71661e-005 0
      CHANNELS 3 Zrotation Xrotation Yrotation
      JOINT Spine2
      {
        OFFSET 11.9445 1.14441e-005 0
        CHANNELS 3 Zrotation Xrotation Yrotation
        JOINT Spine3
        {
          OFFSET 14.7254 4.19617e-005 0
          CHANNELS 3 Zrotation Xrotation Yrotation
          JOINT Spine4
          {
            OFFSET 10.9679 0 0
            CHANNELS 3 Zrotation Xrotation Yrotation
            JOINT RightShoulder
            {
              OFFSET 2.46616 -1.6653 3.69651
              CHANNELS 3 Zrotation Xrotation Yrotation
              JOINT RightArm
              {
                OFFSET 13.0012 0 0
                CHANNELS 3 Zrotation Xrotation Yrotation
                JOINT RightForeArm
                {
                  OFFSET 28.7848 1.52588e-005 0
                  CHANNELS 3 Zrotation Xrotation Yrotation
                  JOINT RightHand
                  {
                    OFFSET 26.5688 1.52588e-005 0
                    CHANNELS 3 Zrotation Xrotation Yrotation
                    End Site
                    {
                      OFFSET 0 0 0
                    }
                  }
                }
              }
            }
            JOINT LeftShoulder
            {
              OFFSET 2.38034 -1.29275 -3.75231
              CHANNELS 3 Zrotation Xrotation Yrotation
              JOINT LeftArm
              {
                OFFSET 16.3182 6.10352e-005 0
                CHANNELS 3 Zrotation Xrotation Yrotation
                JOINT LeftForeArm
                {
                  OFFSET 27.0901 0 0
                  CHANNELS 3 Zrotation Xrotation Yrotation
                  JOINT LeftHand
                  {
                    OFFSET 24.5451 1.52588e-005 0
                    CHANNELS 3 Zrotation Xrotation Yrotation
                    End Site
                    {
                      OFFSET 0 0 0
                    }
                  }
                }
              }
            }
            JOINT Neck
            {
              OFFSET 5.0226 -0.0266342 0
              CHANNELS 3 Zrotation Xrotation Yrotation
              JOINT Head
              {
                OFFSET 6.69363 2.86102e-005 0
                CHANNELS 3 Zrotation Xrotation Yrotation
                End Site
                {
                  OFFSET 0 0 0
                }
              }
            }
          }
        }
      }
    }
  }
}
MOTION
Frames:	16
Frame Time:	0.0333333
15.7317 88.4648 -12.4863 57.7786 -48.5462 74.8957 -168.44 44.1612 101.608 -28.0105 -3.85885 -1.88544 61.0977 2.32126 1.16832 28.7808 3.45404e-006 2.93818e-006 170.984 27.9343 69.692 -38.5018 -5.94289 -3.31656 46.4695 3.06116 3.09282 28.7808 1.46258e-005 2.12421e-005 3.86419 10.0597 -92.3154 6.74061 6.36174 -3.68199 -4.92099 6.19334 -3.95809 -27.5694 7.16971 -1.59894 -7.55671 7.16969 -1.59896 80.053 -33.4907 -123.714 49.5377 -35.1736 -56.2906 -109.496 -59.1272 -106.236 -0.00773818 0.0921558 15.1843 -87.5708 -48.3956 82.0853 34.5261 -46.6063 21.6797 -75.0117 -40.6295 -83.2432 7.69672 -1.40012 -19.1532 -5.52555 -1.26896 43.7326 -45.1212 11.675 -40.9045 
13.5743 86.1778 -12.9682 67.8772 -47.1019 81.0662 -170.33 41.5577 100.377 -32.1773 -5.03766 0.00129219 65.2045 2.76836 1.46547 28.7808 3.45404e-006 2.93818e-006 169.304 23.9751 65.6331 -32.0749 -4.81293 -2.57523 45.9408 4.20523 3.96467 28.7808 1.46258e-005 2.12421e-005 3.19929 10.9292 -92.0401 5.05957 5.27941 -3.60909 -6.60694 5.116 -3.8322 -29.2132 6.11762 -1.8494 -9.20048 6.11759 -1.84942 77.3364 -37.1472 -126.239 52.2543 -23.9715 -65.0559 -175.429 -75.8638 -174.061 -26.1577 -5.00154 16.6425 -92.0837 -50.3986 75.7224 33.6495 -45.7526 19.2717 -74.4083 -43.5363 -82.2949 5.04997 -1.06267 -19.2416 -9.19835 -2.68253 42.9894 -44.3978 11.3391 -40.6693 
11.5074 84.3001 -11.4606 62.1149 -45.6302 75.79 -171.671 48.6157 101.158 -37.0401 -5.78998 -0.364614 66.5754 1.68296 0.895708 28.7808 3.45404e-006 2.93818e-006 170.951 28.1376 64.6239 -24.2681 -3.59964 -1.8526 44.5465 5.20945 4.85865 28.7808 1.46258e-005 2.12421e-005 2.6675 10.6891 -91.104 5.58816 4.97434 -3.03289 -6.07743 4.83452 -3.24883 -28.6811 5.6499 -1.39589 -8.66843 5.64988 -1.39592 74.4088 -41.8931 -128.241 46.8955 -16.266 -62.5949 -159.164 -85.0404 -158.015 -34.2057 -7.24266 18.5149 -98.7242 -52.2307 66.6194 31.9106 -44.6758 12.6869 -71.4755 -49.6735 -78.9469 3.33653 -0.933887 -21.2058 -14.6658 -4.64837 40.3674 -44.2344 10.8094 -39.0753 
9.77326 82.6414 -8.63413 53.2235 -44.7169 68.6923 -171.592 56.061 104.154 -40.9028 -5.43031 -2.70116 68.2028 0.227775 0.118325 28.7808 3.45404e-006 2.93818e-006 172.664 34.2386 65.397 -17.2487 -4.32184 -0.799493 43.7228 6.53573 6.01642 28.7808 1.46258e-005 2.12421e-005 2.25583 10.2962 -90.2339 6.40018 5.09244 -2.18407 -5.2631 4.9898 -2.40599 -27.8766 5.50218 -0.551769 -7.86394 5.50216 -0.551797 73.1625 -45.93 -127.92 41.4881 -9.57956 -63.0569 -11.9269 -76.2158 -11.2102 -30.3638 -4.21646 10.4675 -104.794 -52.9009 58.3666 28.0481 -43.721 2.16527 -68.3593 -56.8828 -74.9755 1.61841 -0.778256 -21.9457 -18.6878 -6.49325 38.6236 -46.0512 11.7432 -40.2159 
7.46311 81.3413 -7.18937 54.2301 -43.7439 68.9101 -171.858 57.5277 105.503 -42.5048 -3.81561 -2.87399 68.0877 -1.12876 -0.602118 28.7808 3.45404e-006 2.93818e-006 172.359 35.7423 65.7189 -13.248 -8.2577 0.44852 42.5271 9.21476 8.38247 28.7808 1.46258e-005 2.12421e-005 1.67051 10.5973 -89.7287 5.79932 4.54257 -1.71255 -5.86514 4.46282 -1.91113 -28.4636 4.84682 -0.264927 -8.45091 4.84683 -0.264956 74.5224 -48.8446 -124.446 37.345 -5.72725 -65.8163 -6.90966 -53.9033 -6.88727 -18.4808 -5.87674 29.812 -108.657 -52.762 53.0209 29.7968 -49.7066 7.38171 -90.1645 -44.3027 -93.0484 -6.45074 -0.868105 18.6028 -21.4346 -6.33776 38.2995 -46.2307 15.4808 -44.7241 
5.01772 80.2138 -5.71061 54.0971 -42.7767 69.0575 -172.573 59.6117 107.778 -43.2506 -2.20702 -2.74927 67.2638 -2.67486 -1.46216 28.7808 3.45404e-006 2.93818e-006 173.346 38.003 66.9595 -13.5157 -5.03314 1.20998 43.4483 7.98221 7.1645 28.7808 1.46258e-005 2.12421e-005 1.31577 10.7409 -89.537 5.50148 4.10433 -1.4622 -6.16404 4.036 -1.64168 -28.7508 4.35371 -0.162173 -8.73812 4.35369 -0.162192 78.5972 -50.1775 -117.883 30.9322 0.952698 -51.9021 -15.9558 -18.5906 -37.7841 -10.0725 -2.17725 20.2678 -111.582 -52.0659 48.7409 19.3663 -41.2399 -38.9005 2.97782 -86.7174 -0.329106 -0.524299 0.227658 24.2167 -22.2839 -5.91129 37.7991 -46.2245 18.1724 -48.1327 
2.79529 79.7032 -4.51478 54.4799 -42.4338 69.9621 -173.043 60.3011 109.744 -42.2642 -1.64267 -2.21056 65.685 -3.922 -2.24537 28.7808 3.45404e-006 2.93818e-006 174.62 37.7338 68.6554 -16.2433 0.42047 0.509207 51.8527 8.79918 6.65043 28.7808 1.46258e-005 2.12421e-005 1.2407 10.8861 -89.6952 5.18534 3.65469 -1.33201 -6.48134 3.59254 -1.49187 -29.0577 3.88589 -0.167192 -9.04507 3.88587 -0.167213 84.8692 -49.7642 -108.697 27.5891 7.93839 -61.1108 -4.46122 -22.8342 -5.42023 -48.2751 -8.61455 14.2171 -114.231 -51.6214 44.9741 -2.71805 -31.7467 -60.0434 1.6788 -43.9593 -2.57967 33.7742 3.46478 6.59482 -22.5473 -5.4262 37.6907 -43.6945 19.235 -51.6779 
0.546704 79.4674 -3.19509 55.4701 -42.7877 71.1024 -173.53 59.9721 111.593 -40.8081 -1.00782 -0.868787 63.3531 -4.93474 -3.00494 28.7808 3.45404e-006 2.93818e-006 174.91 37.8691 70.3928 -18.2017 1.1917 0.723603 58.0096 7.71412 5.12414 28.7808 1.46258e-005 2.12421e-005 1.00432 10.9151 -89.8358 5.10114 2.91469 -1.23305 -6.56739 2.85769 -1.35797 -29.1281 3.14973 -0.298925 -9.11547 3.14973 -0.29894 89.9072 -46.9655 -101.701 22.7569 17.0518 -41.308 30.5323 23.6215 -61.543 -32.2138 -7.70966 21.6051 -117.61 -51.8569 40.6583 -8.69595 -26.407 -64.3676 1.9561 -18.6823 -2.9527 5.43936 1.44857 18.2337 -22.6384 -4.75768 38.383 -42.0143 20.2916 -54.2139 
-1.28634 79.5524 -2.01475 56.2018 -44.4944 71.541 -173.421 57.9328 113 -38.4318 -2.50383 0.218085 61.5349 -5.55924 -3.52206 28.7808 3.45404e-006 2.93818e-006 174.905 39.9894 71.757 -22.9813 -1.99241 1.29692 60.5872 6.6723 4.2008 28.7808 1.46258e-005 2.12421e-005 0.629772 10.9507 -89.7849 5.00111 1.97168 -0.69973 -6.6686 1.93896 -0.785865 -29.2158 2.09078 -0.0745701 -9.20313 2.09078 -0.0745591 92.1876 -45.3813 -98.3974 16.746 30.3491 -27.5679 59.4543 21.2381 -81.9445 -28.2891 -8.39029 27.9899 -118.224 -51.589 39.7095 -15.4681 -20.0419 -73.9084 1.33636 -32.9372 -3.55915 62.0432 10.8117 11.5135 -21.0704 -3.90905 37.8077 -43.5171 20.1732 -51.6813 
-2.79202 80.2969 -0.249879 55.7971 -49.4154 70.4591 -170.683 53.5743 115.129 -34.9837 -4.62754 -0.28136 59.7538 -5.76625 -3.82762 28.7808 3.45404e-006 2.93818e-006 175.051 40.2207 74.986 -23.5617 -7.15261 0.35887 61.094 5.9305 3.71788 28.7808 1.46258e-005 2.12421e-005 0.550798 11.0024 -89.5864 4.8909 1.74207 -0.133295 -6.77891 1.73452 -0.209866 -29.3237 1.70159 0.396595 -9.31106 1.70156 0.396585 95.6954 -43.5148 -92.9324 11.3813 38.8633 -20.5749 68.2788 18.5378 -86.5034 -27.3643 -8.25405 28.588 -119.058 -51.1823 38.4014 -18.0474 -19.3664 -43.5493 -100.359 -34.541 -98.6312 -31.3362 -0.862185 -11.9955 -16.96 -3.76765 37.681 -47.5945 19.2666 -48.0582 
-5.38476 80.7471 1.30809 62.0002 -57.4142 81.7354 -167.806 51.7463 124.764 -34.734 0.283975 2.74821 58.411 -5.7012 -3.94684 28.7808 3.45404e-006 2.93818e-006 175.45 34.1361 85.3698 -22.6013 -8.50246 -0.290099 60.2368 5.24633 3.38922 28.7808 1.46258e-005 2.12421e-005 0.922623 11.3709 -89.9934 4.16664 2.29267 -1.07128 -7.50286 2.24329 -1.1712 -30.0537 2.50858 -0.332334 -10.041 2.50858 -0.332371 97.7069 -42.7669 -89.6166 9.46955 38.5637 -23.853 36.7379 19.6787 -70.6029 -27.9833 -8.2657 27.8943 -118.723 -50.737 38.5778 -18.8705 -15.3254 -62.7376 -178.15 -46.5954 -179.981 -89.8593 -56.2115 54.0054 0.100414 -8.00309 28.4326 -75.2962 4.8707 -21.5328 
-6.15957 81.6992 2.35507 59.4848 -59.1258 78.0258 -165.792 48.0886 123.84 -29.587 -2.37648 1.38253 55.5932 -5.35413 -3.97438 28.7808 3.45404e-006 2.93818e-006 175.529 34.024 85.8102 -20.696 -10.9238 -0.43622 59.4008 5.30511 3.47669 28.7808 1.46258e-005 2.12421e-005 0.164939 11.026 -89.6798 4.83655 0.937067 -0.525539 -6.8342 0.913024 -0.566266 -29.3719 1.0517 -0.219555 -9.35924 1.05168 -0.219596 97.5885 -42.2951 -89.8794 4.54032 39.0129 -28.3566 10.7055 13.5471 -49.0795 -27.9635 -8.4433 28.5611 -116.631 -49.7678 40.7834 -22.734 -10.7795 -66.7808 1.86002 -36.3268 -2.57938 -133.598 13.0943 -10.6769 -0.774961 -8.54959 25.3669 -72.25 2.89971 -20.0845 
-6.33404 82.6833 3.13143 57.0614 -60.8386 73.8668 -164.012 43.5689 122.482 -24.8913 -5.64183 -0.122066 52.9579 -5.33462 -4.22292 28.7808 3.45404e-006 2.93818e-006 175.353 33.3866 85.3736 -17.7745 -13.5703 -0.706213 57.7292 5.14289 3.49762 28.7808 1.46258e-005 2.12421e-005 -0.565302 10.6491 -89.3143 5.57473 -0.284101 0.0141236 -6.09617 -0.283213 0.026604 -28.6316 -0.275215 -0.0719287 -8.61897 -0.275217 -0.0719114 96.5991 -41.8621 -91.6217 0.0795011 44.8128 -27.6022 8.71058 10.9603 -50.3956 -26.044 -6.61058 23.5098 -114.932 -48.6551 42.438 -26.7046 -4.88063 -71.3151 2.73609 14.2792 -4.25101 -88.5977 39.5794 -45.5728 -4.54921 -9.41951 20.9793 -65.8315 1.17536 -19.7647 
-6.21308 83.6399 3.97339 55.1593 -62.6385 69.9614 -162.372 38.871 121.295 -21.1444 -9.47149 -2.15805 50.1844 -5.18246 -4.39598 28.7808 3.45404e-006 2.93818e-006 175.127 32.0719 84.8038 -14.4789 -16.1597 -1.23499 55.7817 4.73061 3.36156 28.7808 1.46258e-005 2.12421e-005 -1.25168 10.3789 -88.865 6.09917 -1.34454 0.605276 -5.57127 -1.31658 0.663889 -28.1119 -1.46427 0.173263 -8.09926 -1.46429 0.173236 95.2988 -42.8925 -93.6947 -3.61805 50.4889 -31.5708 6.98972 9.61011 -49.5206 -25.7964 -6.44839 23.1943 -111.014 -45.5272 46.1413 -26.8495 2.13659 -52.2573 -6.40546 -8.60295 -51.297 -81.999 11.3709 -17.7448 -4.40086 -9.85842 16.0283 -64.4766 0.197368 -18.9351 
-5.98511 84.2361 4.77466 51.355 -64.2113 64.2345 -161.461 35.5539 120.437 -19.5659 -12.6115 -4.17613 48.2537 -5.04102 -4.48986 28.7808 3.45404e-006 2.93818e-006 174.953 32.0523 84.0565 -12.2898 -18.3577 -1.4367 54.668 4.46218 3.24443 28.7808 1.46258e-005 2.12421e-005 -1.85209 10.1536 -88.4551 6.52907 -2.16089 0.957879 -5.14051 -2.11668 1.052 -27.6898 -2.34881 0.262023 -7.67716 -2.34883 0.262003 94.7849 -43.893 -94.3972 -5.04197 55.2671 -36.3723 6.03561 8.56838 -49.8753 -28.2238 -5.20421 15.7497 -108.055 -43.0898 49.1042 -23.7307 12.2672 -41.2737 -36.2396 -2.09187 -91.0015 -46.661 -8.45715 16.0082 -0.760942 -10.4787 11.5798 -64.9432 -1.34725 -17.4213 
-5.69327 84.6196 5.36473 45.9677 -64.9493 57.2221 -161.244 33.5287 119.582 -18.6737 -14.3197 -5.42458 46.4184 -5.78258 -5.25991 28.7808 3.45404e-006 2.93818e-006 174.874 33.403 83.154 -11.0886 -20.5616 -1.57417 53.702 4.11681 3.0632 28.7808 1.46258e-005 2.12421e-005 -2.3249 9.90638 -88.2065 7.00487 -2.80759 1.16353 -4.66364 -2.75364 1.28726 -27.2226 -3.0278 0.268283 -7.20999 -3.02783 0.268244 94.4561 -44.8443 -94.7796 -1.59055 60.0415 -42.6777 5.80263 6.61331 -56.1595 -29.9773 -4.98488 13.7604 -105.009 -40.1322 52.1327 -23.1865 13.805 -43.3105 -49.2685 -1.26849 -92.1421 -56.7172 -7.19731 9.58075 2.26923 -12.1883 5.25796 -63.5764 -5.01353 -13.939 
